<?xml version="1.0" encoding="utf-8"?>
<svg xmlns="http://www.w3.org/2000/svg" fill="none" height="100%" overflow="visible" preserveAspectRatio="none" style="display: block;" viewBox="0 0 28 16" width="100%">
<path d="M0 14.8789C0 14.2594 0.495146 13.7578 1.09709 13.7578H3.2233V2.08482C3.2233 0.708052 4.01942 0 5.30097 0H22.699C24.0485 0 24.7767 0.708052 24.7767 2.08482V13.7578H26.9029C27.5049 13.7578 28 14.2594 28 14.8789C28 15.4985 27.5049 16 26.9029 16H1.09709C0.495146 16 0 15.4985 0 14.8789ZM4.78641 13.7578H23.2136V2.52735C23.2136 1.89797 22.9029 1.58328 22.2816 1.58328H5.71845C5.09709 1.58328 4.78641 1.89797 4.78641 2.52735V13.7578Z" fill="var(--fill-0, black)" id="Vector"/>
</svg>