<?xml version="1.0" encoding="utf-8"?>
<svg xmlns="http://www.w3.org/2000/svg" fill="none" height="100%" overflow="visible" preserveAspectRatio="none" style="display: block;" viewBox="0 0 20 16" width="100%">
<path d="M2.66327 16C0.890585 16 0 15.1048 0 13.3058V2.69419C0 0.895166 0.890585 0 2.66327 0H17.3367C19.1179 0 20 0.903857 20 2.69419V13.3058C20 15.0961 19.1179 16 17.3367 16H2.66327ZM2.68024 14.6008H17.3198C18.1595 14.6008 18.6344 14.1401 18.6344 13.2363V2.76372C18.6344 1.85986 18.1595 1.39924 17.3198 1.39924H2.68024C1.83206 1.39924 1.36556 1.85986 1.36556 2.76372V13.2363C1.36556 14.1401 1.83206 14.6008 2.68024 14.6008ZM6.72604 13.9316C6.49703 13.9316 6.3274 13.7751 6.3274 13.5318C6.3274 13.2884 6.49703 13.1233 6.72604 13.1233H13.2824C13.5115 13.1233 13.6726 13.2884 13.6726 13.5318C13.6726 13.7751 13.5115 13.9316 13.2824 13.9316H6.72604Z" fill="var(--fill-0, black)" id="Vector"/>
</svg>