<?xml version="1.0" encoding="utf-8"?>
<svg xmlns="http://www.w3.org/2000/svg" fill="none" height="100%" overflow="visible" preserveAspectRatio="none" style="display: block;" viewBox="0 0 16 20" width="100%">
<path d="M8 20C7.45119 20 7.06069 19.6188 7.06069 19.0683V5.1244L7.14512 2.85866L3.97889 6.34198L1.57256 8.71361C1.41425 8.88301 1.16095 8.96771 0.907652 8.96771C0.379947 8.96771 0 8.56538 0 8.04659C0 7.79248 0.0949868 7.57014 0.295515 7.35839L7.29288 0.317628C7.4934 0.105876 7.73615 0 8 0C8.26385 0 8.5066 0.105876 8.70712 0.317628L15.715 7.35839C15.9156 7.57014 16 7.79248 16 8.04659C16 8.56538 15.6201 8.96771 15.0923 8.96771C14.8391 8.96771 14.5963 8.88301 14.4274 8.71361L12.0211 6.34198L8.86544 2.86924L8.93931 5.1244V19.0683C8.93931 19.6188 8.54881 20 8 20Z" fill="var(--fill-0, black)" id="Vector"/>
</svg>