<?xml version="1.0" encoding="utf-8"?>
<svg xmlns="http://www.w3.org/2000/svg" fill="none" height="100%" overflow="visible" preserveAspectRatio="none" style="display: block;" viewBox="0 0 129 3.99951" width="100%">
<path d="M1.22835 0.0203383C1.95121 -0.0317653 2.89904 0.023949 3.61918 0.100416C3.84488 0.124134 3.731 0.229662 3.8868 0.250807C4.19139 0.291949 4.47511 0.240786 4.77612 0.28987C4.87592 0.306662 4.75184 0.474348 4.85648 0.488112C5.42985 0.562309 5.97258 0.519799 6.55342 0.555495C9.4145 0.731604 12.2271 0.794411 15.1232 0.870924C16.0781 0.896026 17.2387 1.04789 18.225 0.981276C18.3401 0.973345 18.2718 0.826432 18.2937 0.814284C18.6372 0.628428 18.5229 0.926119 18.7473 0.965651C19.6377 1.12175 20.6278 1.13483 21.4847 1.07796C21.8493 1.05332 21.484 0.760303 21.8511 0.924635C21.8764 0.93585 21.7841 1.09236 21.8837 1.10921C22.1105 1.14675 22.5408 1.11926 22.7165 1.13167C23.0552 1.15636 23.1112 1.1543 23.4315 1.15608C23.8694 1.15988 24.3904 1.23745 24.8602 1.20198C24.9603 1.19386 24.8277 1.03399 24.9875 1.00667C25.1476 0.979405 25.5713 0.993255 25.7141 1.03108C25.8563 1.06894 25.7961 1.19428 25.821 1.22346C26.0286 1.46708 26.5174 1.13028 26.5816 1.12092C27.7307 0.97854 28.7165 1.17124 29.7951 1.17073C30.6139 1.1699 31.4898 1.10636 32.269 1.11506C33.1972 1.12607 33.9841 1.213 34.8859 1.19807C34.981 1.19668 34.8697 1.00779 34.986 1.00569C36.221 0.983737 37.4477 1.0043 38.6774 1.13167C38.8003 1.14476 38.6418 1.31087 38.7646 1.33381C39.519 1.46995 40.7128 1.79623 41.1609 1.07503C41.6719 1.10319 42.2924 1.13278 42.7495 1.27815C43.0439 1.37174 42.758 1.5524 43.12 1.47542C43.2015 1.45818 43.0956 1.29974 43.218 1.28596C43.7335 1.22816 44.2967 1.27969 44.8067 1.19807C44.9104 1.18109 44.8822 1.039 44.9116 1.0135C45.1584 0.807381 45.569 1.1482 45.6593 1.17366C46.3419 1.35862 46.8408 1.28537 47.4767 1.28987C47.6242 1.291 47.4502 1.10148 47.5918 1.09553C48.3284 1.06827 49.0918 1.08438 49.8131 1.16878C49.9731 1.18811 49.8259 1.3504 49.9023 1.36799C50.2403 1.4431 50.3156 1.13684 50.6397 1.20296C50.7077 1.21666 50.6698 1.35414 50.682 1.36995C50.877 1.60891 51.0464 1.27142 51.0967 1.2635C51.7315 1.16129 52.1374 1.51476 52.7507 1.46467C52.824 1.4583 52.6589 1.28234 52.8651 1.27522C54.2391 1.22679 55.6923 1.27548 57.0523 1.41585C57.2635 1.4375 57.1125 1.56952 57.1258 1.58577C57.3427 1.83953 57.4832 1.49897 57.5521 1.48616C58.0961 1.39395 58.6044 1.67949 58.9739 1.27424C61.2775 1.41485 63.5705 1.18761 65.855 1.55061C65.884 1.55482 65.8325 1.72166 65.8904 1.72932C66.588 1.82333 66.4543 1.56343 66.9159 1.24495C67.0324 1.16542 67.3858 1.54978 67.4171 1.57796C67.531 1.68188 67.413 1.93089 67.4511 1.951C67.7671 2.1088 67.716 1.28428 68.1423 1.28401C68.1545 1.28757 68.1 1.4362 68.1348 1.45198C68.246 1.49933 68.3563 1.43988 68.4651 1.49202C68.7141 1.61289 68.8032 2.01326 69.1835 1.7801C69.2313 1.74896 69.1583 1.2827 69.5383 1.30452C69.69 1.31372 70.3617 1.30549 70.5502 1.33577C70.737 1.36585 70.6107 1.51504 70.6224 1.52327C71.129 1.72255 70.9371 1.80538 71.1909 2.10042C71.4444 2.39381 71.3747 1.69456 71.4776 1.61506C71.5813 1.53705 71.9528 1.70144 72.0442 1.75862C72.1353 1.81575 72.022 1.91075 72.1027 1.94319C72.6406 2.15457 72.3391 1.59562 72.5161 1.48421C72.934 1.22075 73.2598 1.74088 73.6424 1.79182C73.7456 1.80538 73.6613 1.68668 73.7534 1.67561C74.1183 1.63334 74.3379 1.79584 74.753 1.64729C74.8209 1.62306 75.1567 1.3108 75.374 1.53987C75.4048 1.57295 75.3179 1.70226 75.4735 1.73128C75.7059 1.77481 76.1246 1.80289 76.3744 1.7596C76.5586 1.72749 76.3474 1.51471 76.5793 1.58089C76.6825 1.6105 76.4917 1.73489 76.6856 1.7801C76.8785 1.82523 77.3708 1.82055 77.5585 1.81624C77.7458 1.81183 77.6435 1.64941 77.6586 1.6385C77.7502 1.57601 78.1097 1.49768 78.1414 1.49788C79.7433 1.47812 81.2205 1.75125 82.7801 1.66096C82.9025 1.65411 82.8214 1.48311 82.84 1.4803C83.2589 1.40886 82.9287 1.86351 83.2214 2.01546C83.1791 1.66894 83.3518 1.73119 83.647 1.69319C83.7884 1.6747 83.7127 1.54215 83.7246 1.52717C83.9355 1.32338 84.0824 1.58661 84.1202 1.64046C84.2598 1.83828 84.4119 1.60443 84.507 1.73616C84.602 1.86753 84.3837 2.06275 84.6663 2.06038C84.7457 1.93634 84.5359 1.61194 84.7508 1.5594C85.5616 1.36073 87.0751 1.61497 87.7272 1.64143C88.3778 1.66782 88.5882 1.64547 88.9673 1.69026C89.6521 1.77131 89.4016 1.53083 89.8266 1.42073C90.253 1.3107 90.0461 1.90161 90.1072 2.02913C90.1674 2.15628 90.2332 2.02563 90.3081 2.09553C90.3825 2.16541 90.2211 2.25192 90.3966 2.27815C90.5721 2.30435 91.0517 2.07818 91.1143 1.94514C91.2459 1.66338 91.0298 1.3677 91.4943 1.47151C91.521 1.47767 91.4346 1.63331 91.5365 1.64924C92.3493 1.76903 93.1939 1.77572 94.0056 1.88167C94.1173 1.89648 94.0176 2.07031 94.0826 2.08089C94.7589 2.1915 94.5174 1.89921 94.8882 1.57503C94.8049 2.0065 95.01 2.27072 95.5235 2.27327C95.8318 2.27485 95.7789 2.08671 95.9784 1.95393C96.0383 1.91389 96.2568 2.04256 96.2964 1.95393C96.4266 1.66431 96.2213 1.34047 96.7506 1.46956C96.7736 1.47582 96.7 1.63349 96.7798 1.64339C97.2986 1.70625 97.361 1.40371 97.9218 1.36702C98.3613 1.33826 99.1428 1.52245 99.6433 1.55256C99.6327 2.03766 100.106 1.92707 100.298 1.5926C100.622 1.60629 100.973 1.58741 101.287 1.63362C101.395 1.64938 101.325 1.78934 101.338 1.80452C101.547 2.04249 101.688 1.71766 101.758 1.70491C102.518 1.58097 103.137 1.82775 103.862 1.58674C103.888 1.5775 103.93 1.24131 104.124 1.48714C104.133 1.50593 103.899 1.65697 104.238 1.66878C104.579 1.68066 105.222 1.86092 105.696 1.70491C105.81 1.66732 106.1 1.39456 106.333 1.60823C106.364 1.63725 106.33 1.73316 106.375 1.78694C106.52 1.95827 106.599 1.61799 106.769 1.90706C106.939 2.19634 107.292 2.41315 107.77 2.2137C107.785 2.2079 107.898 1.93834 108.048 1.94221C108.288 1.94926 108.629 2.00546 108.879 2.00374C108.999 2.0028 108.923 1.83562 108.943 1.83186C109.749 1.73793 110.323 1.8881 111.187 1.95296C111.345 1.96506 111.8 1.73615 112.107 1.91682C112.443 2.11491 112.097 2.93803 112.871 2.74202C113.183 2.6634 113.578 1.61962 114.138 2.15999C115.225 2.02596 116.231 2.30251 117.322 2.11116C117.371 2.10268 117.526 1.81158 117.641 1.81526C117.812 1.82171 117.906 1.95863 118.028 1.9676C118.54 2.00862 119.009 1.89187 119.503 1.90999C119.69 1.91657 119.625 2.0573 119.848 2.06526C120.071 2.073 120.221 1.88781 120.523 1.97737C120.752 2.04575 120.981 2.42439 121.284 2.46858C121.296 2.09478 121.504 2.10238 121.874 2.00374C121.946 1.98461 121.87 1.85472 121.903 1.8387C122.04 1.77164 122.167 1.87945 122.297 1.80647C122.329 1.78894 122.331 1.66102 122.356 1.63948C122.577 1.45184 122.939 1.73878 123.001 1.78889C123.24 1.9788 123.352 1.81274 123.535 1.88753C123.717 1.96227 123.445 2.05604 123.658 2.10139C124.1 2.19525 124.67 2.17463 125.119 2.18049C125.298 2.18193 125.176 2.0118 125.202 2.00764C125.572 1.96442 125.948 2.14586 126.153 1.80647C126.411 2.68364 126.377 1.72062 126.907 1.89631C126.949 1.9106 127.002 2.32532 126.842 2.38655C126.682 2.4474 126.439 2.31818 126.216 2.41292C126.164 2.43514 125.863 2.82181 125.821 2.84749C125.499 3.03131 125.452 2.4138 125.435 2.37776C125.242 2.0101 124.872 2.42888 124.775 2.45784C124.331 2.59042 123.954 2.5038 123.582 2.59846C123.339 2.65965 123.315 3.06578 123.125 3.05354C122.49 3.01244 122.269 2.44502 121.671 2.93635C121.543 3.04117 121.67 3.48575 121.21 3.13655C121.18 3.11334 120.841 2.79549 120.644 2.9969C120.619 3.02234 120.62 3.15174 120.587 3.16292C120.369 3.23321 120.223 3.13029 119.985 3.17952C119.747 3.22888 119.46 3.30241 119.188 3.25862C119.024 3.2324 118.814 2.9918 118.735 2.93245C118.514 2.76238 118.276 3.04073 118.139 2.83479C118 2.62782 118.271 2.31325 117.908 2.17952C117.894 2.51563 117.863 2.86102 117.842 3.19905C117.046 3.18721 116.263 3.07873 115.465 3.09358C115.367 3.09605 115.468 3.27694 115.362 3.28401C114.914 3.31273 114.523 3.18386 114.059 3.23518C113.7 3.2756 113.306 3.46626 112.93 3.51448C112.7 3.13015 112.143 3.26056 111.738 3.22542C111.596 3.21327 111.606 3.1105 111.505 3.07698C111.125 2.95325 111.303 3.29302 111.198 3.34651C110.751 3.57469 110.713 2.80538 110.185 2.82405C110.157 2.8248 109.815 3.23503 109.768 3.26057C109.469 3.42692 109.718 3.11812 109.531 3.08772C109.19 3.03233 108.952 2.93436 108.551 3.05452C108.434 3.0903 108.153 3.34595 107.926 3.14827C107.897 3.12216 107.913 2.98628 107.889 2.97835C107.454 2.84624 107.442 3.27256 107.194 3.41682C106.945 3.56082 106.561 3.26737 106.483 3.18245C106.279 2.96447 106.635 3.08687 106.65 3.06721C106.78 2.81121 106.501 2.85442 106.287 2.83284C106.256 2.41547 105.956 2.44054 106.065 2.81233C106.077 2.85295 106.244 2.81375 106.287 2.83284C106.099 3.24264 105.77 3.29571 105.406 2.91292C105.236 2.7334 105.397 2.52385 104.88 2.60042C104.646 2.6351 104.736 2.9224 104.529 3.00081C104.056 3.1797 103.442 2.9118 102.955 2.95393C102.778 2.96928 102.95 3.12649 102.829 3.14241C102.508 3.18508 102.225 3.06725 101.903 3.12776C101.874 3.13392 101.945 3.29846 101.845 3.30061C101.085 3.31975 100.424 3.2137 99.6303 3.21077C99.2471 3.20943 98.5619 3.30032 98.1649 3.28206C97.4768 3.25135 96.6302 3.01192 96.0424 3.07014C95.659 3.10742 95.7429 3.27228 95.5786 3.3846C95.2619 3.60184 94.7016 3.21307 94.6253 3.15217C94.623 3.15018 94.9525 3.11082 94.7765 3.0262C94.6745 2.8509 94.6292 3.1499 94.6253 3.15217C94.5757 3.11316 93.9166 3.07574 93.7857 3.10725C93.7148 3.12443 93.7541 3.27895 93.7176 3.28596C92.8364 3.42574 91.953 3.46544 91.0592 3.39241C91.0441 3.3868 91.0671 3.21542 91.0306 3.20979C90.5132 3.13212 90.1818 3.34559 89.7551 3.47249C89.3285 3.59932 88.9897 3.5566 88.7371 3.25667C88.4152 3.29437 87.9535 3.16231 87.6877 3.08186C87.4226 3.0016 87.385 3.34019 87.3616 3.34846C86.6321 3.56365 86.2103 3.369 85.4535 3.3387C85.0937 3.32371 84.3797 3.3728 83.9902 3.40999C83.6825 3.43986 83.4968 3.36002 83.2132 3.41096C83.1754 3.41831 83.2134 3.56772 83.2023 3.57503C82.8857 3.7562 83.0375 3.38626 82.9721 3.32014C82.7353 3.07981 82.5888 2.95127 82.1836 3.06428C82.0901 3.09019 81.8175 3.62393 81.647 3.6551C81.4256 3.69454 81.509 3.5035 81.2772 3.54964C81.2574 3.55342 81.2611 3.67104 81.1179 3.66585C80.4531 3.64327 79.7284 3.57494 79.0376 3.58674C78.9433 3.58791 79.064 3.77422 78.9279 3.77913C78.2881 3.80129 77.5867 3.79436 76.9634 3.70686C76.8101 3.68475 76.9059 3.55442 76.8728 3.51546C76.6687 3.28073 76.3794 3.62098 76.3308 3.62874C75.1896 3.79293 74.3159 3.48354 73.1528 3.63069C73.0895 3.63933 72.6022 4.00513 72.3847 3.69124C72.3698 3.67034 72.1541 3.34941 71.9638 3.56917C71.9545 3.5853 72.0841 3.748 71.8522 3.73128C71.6183 3.71455 71.242 3.8249 70.9206 3.64339C70.8188 3.58613 70.578 3.26508 70.2744 3.52034C70.2546 3.53818 69.786 4.11609 69.6186 3.7176C69.5915 3.65197 69.6195 3.22985 69.257 3.44612C69.1878 3.48806 69.3135 3.58266 69.1311 3.64143C68.8515 3.73196 68.4811 3.61858 68.1375 3.80647C68.0776 3.83975 67.8226 4.12638 67.618 3.90901C67.586 3.875 67.6466 3.73457 67.539 3.71858C67.0251 3.64296 66.4864 3.73694 65.9646 3.63948C65.7803 3.60502 65.8745 3.37723 65.682 3.31624C65.4894 3.25525 65.1012 3.19663 64.8996 3.30061C64.698 3.4047 64.9181 3.76751 64.6163 3.79671C63.3031 3.92284 62.0019 3.71066 60.6906 3.67952C60.4962 3.67488 60.6572 3.80401 60.3706 3.80647C59.3139 3.81615 57.4898 3.93786 56.5729 3.66194C55.8382 3.44091 56.7625 3.27337 56.2011 3.18342C55.9303 3.14069 55.6374 3.56149 55.5719 3.57503C54.933 3.70997 54.4888 3.52354 53.9138 3.58089C53.7955 3.59297 53.9115 3.76377 53.811 3.77229C53.4658 3.80195 53.1024 3.72513 52.7725 3.73909C52.6249 3.74592 52.6518 3.87612 52.5158 3.86604C52.19 3.84342 51.9018 3.78923 51.5842 3.66682C51.5558 3.65533 51.7501 3.49317 51.5093 3.48714C51.1192 3.47776 50.635 3.35659 50.1862 3.48128C50.0532 3.51892 50.048 3.81696 49.762 3.61116C49.7019 3.5681 49.7782 3.20963 49.4447 3.51936C49.3884 3.57098 48.8282 3.98879 48.5533 3.71956C48.4807 3.64844 48.2959 3.35527 48.1359 3.4012C48.1142 3.40855 48.2011 3.5691 48.0685 3.58479C47.6009 3.63711 47.1107 3.61957 46.6303 3.66975C46.502 3.68348 46.6928 3.84988 46.5016 3.86506C45.9757 3.90701 45.3189 3.86427 44.8047 3.81233C44.6153 3.79281 44.7463 3.65541 44.7325 3.64046C44.5107 3.39739 44.3791 3.7258 44.3055 3.74495C43.8477 3.85947 43.4991 3.70513 43.0771 3.74592C42.9606 3.75677 43.0431 3.9136 43.0199 3.92756C42.7796 4.06382 42.9584 3.78311 42.8067 3.75178C42.3803 3.66402 41.9047 3.67709 41.4734 3.6971C41.3151 3.70467 41.4929 3.88568 41.3509 3.89046C40.5095 3.92174 39.6347 3.9046 38.8136 3.80452C38.659 3.78534 38.756 3.64504 38.7237 3.61311C38.5016 3.39021 38.1762 3.69445 38.1013 3.72346C37.7608 3.85598 37.6285 3.73261 37.3278 3.75569C35.8586 3.87057 34.0446 3.7887 32.6578 3.73811C30.8507 3.673 29.4483 3.54049 27.725 3.57503C27.6157 3.57721 27.7259 3.76221 27.6317 3.76643C26.4127 3.81126 25.2127 3.7391 23.9913 3.7928C23.8911 3.79688 24.035 3.97271 23.8742 3.98518C23.5442 4.01198 23.1264 4.0024 22.7928 3.94612C22.6301 3.91898 22.8483 3.76818 22.6845 3.74397C22.3031 3.68725 21.8942 3.67469 21.5024 3.70296C21.336 3.71545 21.587 3.89504 21.371 3.89729C19.8948 3.91518 18.4446 3.94624 16.9529 3.71272C16.8508 3.69628 16.761 3.33095 16.5437 3.4012C16.5274 3.50283 16.5284 3.6227 16.5212 3.73128C14.3723 3.78984 12.2452 3.66205 10.0903 3.64241C9.99952 3.64167 10.1564 3.83625 9.98066 3.83577C8.96263 3.8329 7.97403 3.88618 6.93271 3.69319C6.82941 3.67432 6.8822 3.33311 6.57793 3.3846C6.52423 3.39402 6.06525 3.43934 5.94669 3.5135C5.93084 3.52503 6.01393 3.68464 5.86633 3.68928C5.00771 3.71348 4.10792 3.67731 3.25079 3.57991C3.11243 3.56388 3.25945 3.39358 3.1609 3.38069C2.46193 3.2906 1.70149 3.41962 1.0336 3.26546C0.586712 3.16161 0.752269 2.86783 0.514714 2.57893C0.480911 2.53823 0.204397 2.53194 0.189898 2.36409C0.153152 1.94149 0.287017 1.47861 0.232118 1.02815C0.220492 0.9311 -0.150162 1.03514 0.0693695 0.800612C0.0856688 0.784716 0.352945 0.707074 0.41938 0.62776C0.465476 0.572757 0.382554 0.401308 0.47658 0.330885C0.570628 0.260537 0.674065 0.403849 0.829995 0.32112C0.985769 0.237384 0.917442 0.0434611 1.22835 0.0203383ZM86.4906 2.72249C86.2446 2.55934 86.2083 3.15627 86.4743 3.0135C86.4872 3.00587 86.5033 2.7305 86.4906 2.72249ZM116.268 2.62776C115.946 2.36392 115.727 2.75212 115.953 2.95589C116.18 3.15868 116.366 2.70773 116.268 2.62776ZM119.605 2.43538C119.229 2.22735 119.169 3.07557 119.572 2.90413C119.595 2.89448 119.626 2.45123 119.605 2.43538ZM1.40949 2.48909C1.30351 2.67907 1.7013 2.69442 1.6165 2.4969C1.61313 2.48903 1.41771 2.48157 1.40949 2.48909ZM122.916 2.22542C122.798 2.1107 122.46 2.24293 122.606 2.38557C122.723 2.50031 123.061 2.36809 122.916 2.22542ZM73.6526 2.08381C73.6487 2.07491 73.5063 2.06677 73.5089 2.11702C73.5186 2.27926 73.717 2.23364 73.6526 2.08381ZM128.113 1.56233C128.276 1.57682 127.759 1.78526 127.968 1.84846C128.349 1.96355 128.603 1.52384 128.993 1.7596C129.062 1.80375 128.59 2.21903 128.541 2.21663L128.542 2.21565C127.711 2.18363 127.207 1.48327 128.113 1.56233ZM86.142 1.99592C86.035 2.18583 86.4327 2.20129 86.349 2.00374C86.3437 1.99587 86.1485 1.98827 86.142 1.99592ZM64.8424 1.6971C64.6039 2.00744 65.5299 2.03987 65.3266 1.7137C65.3128 1.6969 64.8573 1.68162 64.8424 1.6971Z" fill="var(--fill-0, black)" id="Line"/>
</svg>