<?xml version="1.0" encoding="utf-8"?>
<svg xmlns="http://www.w3.org/2000/svg" fill="none" height="100%" overflow="visible" preserveAspectRatio="none" style="display: block;" viewBox="0 0 28 24" width="100%">
<path clip-rule="evenodd" d="M18.5942 1.61091C20.7458 -0.53697 24.2187 -0.536969 26.3704 1.61091C28.5432 3.78 28.5432 7.3132 26.3704 9.4823L11.8274 24L1.72172 14.3704C-0.499446 12.2538 -0.58361 8.72167 1.53968 6.50112C3.64216 4.30234 7.11428 4.22349 9.31381 6.3194L11.6487 8.54431L18.5942 1.61091ZM23.7923 4.29317C23.0731 3.57517 21.8915 3.57518 21.1722 4.29317L11.708 13.741L6.7976 9.06198C6.0603 8.35942 4.8791 8.3886 4.17825 9.12156C3.49821 9.83274 3.52226 10.9458 4.23793 11.6278L11.7682 18.8033L23.7923 6.80004C24.4903 6.10326 24.4903 4.98995 23.7923 4.29317Z" fill="var(--fill-0, #13A049)" fill-rule="evenodd" id="Vector"/>
</svg>