<?xml version="1.0" encoding="utf-8"?>
<svg xmlns="http://www.w3.org/2000/svg" fill="none" height="100%" overflow="visible" preserveAspectRatio="none" style="display: block;" viewBox="0 0 15.1289 12.4797" width="100%">
<path d="M3.71964 7.27426L0.302936 6.16102C0.302936 6.16102 -0.105398 5.99536 0.0260856 5.61969C0.0531523 5.54222 0.107752 5.47631 0.271085 5.36302C1.02814 4.83534 14.2835 0.0710227 14.2835 0.0710227C14.2835 0.0710227 14.6577 -0.0550939 14.8785 0.0287894C14.9331 0.0456929 14.9822 0.0767984 15.0208 0.118923C15.0595 0.161048 15.0862 0.21268 15.0984 0.268539C15.1222 0.367201 15.1322 0.468706 15.128 0.570123C15.127 0.657856 15.1163 0.739173 15.1083 0.866689C15.0276 2.16927 12.6116 11.8909 12.6116 11.8909C12.6116 11.8909 12.4671 12.4597 11.9492 12.4792C11.8219 12.4833 11.6951 12.4618 11.5764 12.4158C11.4576 12.3699 11.3493 12.3005 11.2579 12.2118C10.2417 11.3376 6.72905 8.97701 5.95287 8.45784C5.93536 8.44591 5.92062 8.43036 5.90963 8.41225C5.89864 8.39414 5.89166 8.37388 5.88917 8.35284C5.87832 8.29812 5.93782 8.23034 5.93782 8.23034C5.93782 8.23034 12.0542 2.79367 12.2169 2.22294C12.2295 2.17872 12.1819 2.15691 12.118 2.17627C11.7118 2.32572 4.66954 6.77294 3.8923 7.26376C3.83636 7.28068 3.77722 7.28428 3.71964 7.27426Z" fill="var(--fill-0, white)" id="Vector"/>
</svg>