<?xml version="1.0" encoding="utf-8"?>
<svg xmlns="http://www.w3.org/2000/svg" fill="none" height="100%" overflow="visible" preserveAspectRatio="none" style="display: block;" viewBox="0 0 185 3.99951" width="100%">
<path d="M1.76159 0.0203383C2.79825 -0.0317653 4.15754 0.023949 5.1903 0.100416C5.51397 0.124134 5.35066 0.229662 5.57409 0.250807C6.01091 0.291949 6.4178 0.240786 6.84948 0.28987C6.9926 0.306662 6.81465 0.474348 6.96472 0.488112C7.787 0.562309 8.56533 0.519799 9.39831 0.555495C13.5014 0.731604 17.535 0.794411 21.6884 0.870924C23.0577 0.896026 24.7222 1.04789 26.1366 0.981276C26.3017 0.973345 26.2038 0.826432 26.2352 0.814284C26.7278 0.628428 26.5639 0.926119 26.8856 0.965651C28.1625 1.12175 29.5825 1.13483 30.8114 1.07796C31.3342 1.05332 30.8104 0.760303 31.3368 0.924635C31.3732 0.93585 31.2408 1.09236 31.3837 1.10921C31.7088 1.14675 32.326 1.11926 32.578 1.13167C33.0636 1.15636 33.144 1.1543 33.6034 1.15608C34.2314 1.15988 34.9784 1.23745 35.6522 1.20198C35.7958 1.19386 35.6057 1.03399 35.8348 1.00667C36.0644 0.979405 36.6721 0.993255 36.8768 1.03108C37.0808 1.06894 36.9944 1.19428 37.0301 1.22346C37.3278 1.46708 38.0289 1.13028 38.121 1.12092C39.7689 0.97854 41.1825 1.17124 42.7294 1.17073C43.9037 1.1699 45.1598 1.10636 46.2772 1.11506C47.6084 1.12607 48.7369 1.213 50.0301 1.19807C50.1666 1.19668 50.007 1.00779 50.1737 1.00569C51.9449 0.983737 53.7041 1.0043 55.4676 1.13167C55.6439 1.14476 55.4165 1.31087 55.5926 1.33381C56.6745 1.46995 58.3866 1.79623 59.0292 1.07503C59.762 1.10319 60.6519 1.13278 61.3075 1.27815C61.7296 1.37174 61.3196 1.5524 61.8387 1.47542C61.9557 1.45818 61.8038 1.29974 61.9794 1.28596C62.7187 1.22816 63.5263 1.27969 64.2577 1.19807C64.4065 1.18109 64.3659 1.039 64.4081 1.0135C64.762 0.807381 65.3509 1.1482 65.4803 1.17366C66.4594 1.35862 67.1748 1.28537 68.0868 1.28987C68.2983 1.291 68.0488 1.10148 68.2518 1.09553C69.3082 1.06827 70.4031 1.08438 71.4374 1.16878C71.6669 1.18811 71.4557 1.3504 71.5653 1.36799C72.0501 1.4431 72.158 1.13684 72.6229 1.20296C72.7203 1.21666 72.666 1.35414 72.6835 1.36995C72.9631 1.60891 73.206 1.27142 73.2782 1.2635C74.1887 1.16129 74.7707 1.51476 75.6503 1.46467C75.7554 1.4583 75.5186 1.28234 75.8143 1.27522C77.7847 1.22679 79.8689 1.27548 81.8192 1.41585C82.122 1.4375 81.9056 1.56952 81.9247 1.58577C82.2356 1.83953 82.4371 1.49897 82.536 1.48616C83.3161 1.39395 84.045 1.67949 84.5751 1.27424C87.8786 1.41485 91.167 1.18761 94.4432 1.55061C94.4849 1.55482 94.4109 1.72166 94.494 1.72932C95.4944 1.82333 95.3026 1.56343 95.9647 1.24495C96.1318 1.16542 96.6386 1.54978 96.6835 1.57796C96.8468 1.68188 96.6775 1.93089 96.7323 1.951C97.1854 2.1088 97.1121 1.28428 97.7235 1.28401C97.741 1.28757 97.6628 1.4362 97.7128 1.45198C97.8721 1.49933 98.0304 1.43988 98.1864 1.49202C98.5435 1.61289 98.6713 2.01326 99.2167 1.7801C99.2852 1.74896 99.1806 1.2827 99.7255 1.30452C99.943 1.31372 100.906 1.30549 101.177 1.33577C101.445 1.36585 101.263 1.51504 101.28 1.52327C102.007 1.72255 101.732 1.80538 102.096 2.10042C102.459 2.39381 102.359 1.69456 102.507 1.61506C102.655 1.53705 103.188 1.70144 103.319 1.75862C103.45 1.81575 103.287 1.91075 103.403 1.94319C104.174 2.15457 103.742 1.59562 103.996 1.48421C104.595 1.22075 105.063 1.74088 105.611 1.79182C105.759 1.80538 105.638 1.68668 105.77 1.67561C106.294 1.63334 106.609 1.79584 107.204 1.64729C107.301 1.62306 107.783 1.3108 108.095 1.53987C108.139 1.57295 108.014 1.70226 108.237 1.73128C108.571 1.77481 109.171 1.80289 109.529 1.7596C109.793 1.72749 109.491 1.51471 109.823 1.58089C109.971 1.6105 109.697 1.73489 109.975 1.7801C110.252 1.82523 110.958 1.82055 111.227 1.81624C111.496 1.81183 111.349 1.64941 111.371 1.6385C111.502 1.57601 112.018 1.49768 112.063 1.49788C114.361 1.47812 116.479 1.75125 118.716 1.66096C118.891 1.65411 118.775 1.48311 118.802 1.4803C119.402 1.40886 118.929 1.86351 119.349 2.01546C119.288 1.66894 119.536 1.73119 119.959 1.69319C120.162 1.6747 120.053 1.54215 120.07 1.52717C120.373 1.32338 120.583 1.58661 120.638 1.64046C120.838 1.83828 121.056 1.60443 121.192 1.73616C121.328 1.86753 121.015 2.06275 121.421 2.06038C121.535 1.93634 121.234 1.61194 121.542 1.5594C122.705 1.36073 124.875 1.61497 125.81 1.64143C126.743 1.66782 127.045 1.64547 127.589 1.69026C128.571 1.77131 128.212 1.53083 128.821 1.42073C129.433 1.3107 129.136 1.90161 129.224 2.02913C129.31 2.15628 129.404 2.02563 129.512 2.09553C129.618 2.16541 129.387 2.25192 129.639 2.27815C129.89 2.30435 130.578 2.07818 130.668 1.94514C130.857 1.66338 130.547 1.3677 131.213 1.47151C131.251 1.47767 131.127 1.63331 131.273 1.64924C132.439 1.76903 133.65 1.77572 134.814 1.88167C134.974 1.89648 134.832 2.07031 134.925 2.08089C135.895 2.1915 135.548 1.89921 136.08 1.57503C135.961 2.0065 136.255 2.27072 136.991 2.27327C137.433 2.27485 137.357 2.08671 137.643 1.95393C137.729 1.91389 138.043 2.04256 138.099 1.95393C138.286 1.66431 137.992 1.34047 138.751 1.46956C138.784 1.47582 138.678 1.63349 138.793 1.64339C139.537 1.70625 139.626 1.40371 140.431 1.36702C141.061 1.33826 142.182 1.52245 142.899 1.55256C142.884 2.03766 143.563 1.92707 143.838 1.5926C144.304 1.60629 144.807 1.58741 145.257 1.63362C145.412 1.64938 145.31 1.78934 145.33 1.80452C145.63 2.04249 145.832 1.71766 145.932 1.70491C147.022 1.58097 147.91 1.82775 148.95 1.58674C148.987 1.5775 149.047 1.24131 149.325 1.48714C149.338 1.50593 149.003 1.65697 149.488 1.66878C149.977 1.68066 150.9 1.86092 151.579 1.70491C151.743 1.66732 152.159 1.39456 152.493 1.60823C152.538 1.63725 152.489 1.73316 152.554 1.78694C152.761 1.95827 152.874 1.61799 153.118 1.90706C153.362 2.19634 153.869 2.41315 154.554 2.2137C154.575 2.2079 154.738 1.93834 154.953 1.94221C155.297 1.94926 155.785 2.00546 156.144 2.00374C156.316 2.0028 156.207 1.83562 156.236 1.83186C157.392 1.73793 158.215 1.8881 159.454 1.95296C159.681 1.96506 160.334 1.73615 160.773 1.91682C161.255 2.11491 160.76 2.93803 161.869 2.74202C162.316 2.6634 162.883 1.61962 163.686 2.15999C165.246 2.02596 166.688 2.30251 168.252 2.11116C168.322 2.10268 168.545 1.81158 168.71 1.81526C168.955 1.82171 169.09 1.95863 169.266 1.9676C170 2.00862 170.672 1.89187 171.38 1.90999C171.648 1.91657 171.555 2.0573 171.875 2.06526C172.195 2.073 172.409 1.88781 172.844 1.97737C173.171 2.04575 173.499 2.42439 173.934 2.46858C173.951 2.09478 174.25 2.10238 174.781 2.00374C174.883 1.98461 174.774 1.85472 174.822 1.8387C175.019 1.77164 175.201 1.87945 175.388 1.80647C175.433 1.78894 175.435 1.66102 175.473 1.63948C175.788 1.45184 176.308 1.73878 176.397 1.78889C176.74 1.9788 176.9 1.81274 177.163 1.88753C177.424 1.96227 177.033 2.05604 177.339 2.10139C177.974 2.19525 178.79 2.17463 179.434 2.18049C179.691 2.18193 179.516 2.0118 179.553 2.00764C180.085 1.96442 180.623 2.14586 180.918 1.80647C181.287 2.68364 181.239 1.72062 181.999 1.89631C182.059 1.9106 182.135 2.32532 181.905 2.38655C181.675 2.4474 181.327 2.31818 181.008 2.41292C180.932 2.43514 180.501 2.82181 180.44 2.84749C179.979 3.03131 179.912 2.4138 179.888 2.37776C179.61 2.0101 179.081 2.42888 178.941 2.45784C178.304 2.59042 177.763 2.5038 177.23 2.59846C176.882 2.65965 176.848 3.06578 176.574 3.05354C175.664 3.01244 175.346 2.44502 174.489 2.93635C174.305 3.04117 174.488 3.48575 173.829 3.13655C173.786 3.11334 173.298 2.79549 173.016 2.9969C172.981 3.02234 172.982 3.15174 172.935 3.16292C172.622 3.23321 172.413 3.13029 172.071 3.17952C171.73 3.22888 171.319 3.30241 170.929 3.25862C170.694 3.2324 170.392 2.9918 170.279 2.93245C169.961 2.76238 169.621 3.04073 169.424 2.83479C169.225 2.62782 169.613 2.31325 169.093 2.17952C169.073 2.51563 169.029 2.86102 168.998 3.19905C167.857 3.18721 166.734 3.07873 165.59 3.09358C165.448 3.09605 165.593 3.27694 165.441 3.28401C164.799 3.31273 164.239 3.18386 163.573 3.23518C163.058 3.2756 162.493 3.46626 161.954 3.51448C161.625 3.13015 160.826 3.26056 160.245 3.22542C160.042 3.21327 160.055 3.1105 159.91 3.07698C159.365 2.95325 159.62 3.29302 159.471 3.34651C158.829 3.57469 158.774 2.80538 158.017 2.82405C157.977 2.8248 157.486 3.23503 157.419 3.26057C156.99 3.42692 157.348 3.11812 157.08 3.08772C156.59 3.03233 156.249 2.93436 155.674 3.05452C155.506 3.0903 155.104 3.34595 154.778 3.14827C154.736 3.12216 154.759 2.98628 154.724 2.97835C154.101 2.84624 154.084 3.27256 153.727 3.41682C153.371 3.56082 152.82 3.26737 152.708 3.18245C152.416 2.96447 152.926 3.08687 152.948 3.06721C153.135 2.81121 152.734 2.85442 152.427 2.83284C152.382 2.41547 151.953 2.44054 152.108 2.81233C152.126 2.85295 152.365 2.81375 152.427 2.83284C152.157 3.24264 151.685 3.29571 151.164 2.91292C150.92 2.7334 151.15 2.52385 150.409 2.60042C150.073 2.6351 150.203 2.9224 149.906 3.00081C149.228 3.1797 148.347 2.9118 147.648 2.95393C147.395 2.96928 147.641 3.12649 147.468 3.14241C147.008 3.18508 146.602 3.06725 146.14 3.12776C146.098 3.13392 146.2 3.29846 146.057 3.30061C144.967 3.31975 144.018 3.2137 142.881 3.21077C142.331 3.20943 141.349 3.30032 140.779 3.28206C139.792 3.25135 138.578 3.01192 137.735 3.07014C137.185 3.10742 137.306 3.27228 137.07 3.3846C136.616 3.60184 135.812 3.21307 135.703 3.15217C135.7 3.15018 136.172 3.11082 135.92 3.0262C135.774 2.8509 135.709 3.1499 135.703 3.15217C135.632 3.11316 134.687 3.07574 134.499 3.10725C134.397 3.12443 134.454 3.27895 134.401 3.28596C133.137 3.42574 131.871 3.46544 130.589 3.39241C130.567 3.3868 130.6 3.21542 130.548 3.20979C129.806 3.13212 129.33 3.34559 128.719 3.47249C128.107 3.59932 127.621 3.5566 127.259 3.25667C126.797 3.29437 126.135 3.16231 125.754 3.08186C125.374 3.0016 125.32 3.34019 125.286 3.34846C124.24 3.56365 123.635 3.369 122.55 3.3387C122.034 3.32371 121.01 3.3728 120.451 3.40999C120.01 3.43986 119.743 3.36002 119.337 3.41096C119.283 3.41831 119.337 3.56772 119.321 3.57503C118.867 3.7562 119.085 3.38626 118.991 3.32014C118.651 3.07981 118.441 2.95127 117.86 3.06428C117.726 3.09019 117.335 3.62393 117.091 3.6551C116.773 3.69454 116.893 3.5035 116.56 3.54964C116.532 3.55342 116.537 3.67104 116.332 3.66585C115.379 3.64327 114.339 3.57494 113.349 3.58674C113.213 3.58791 113.386 3.77422 113.191 3.77913C112.274 3.80129 111.268 3.79436 110.374 3.70686C110.154 3.68475 110.292 3.55442 110.244 3.51546C109.951 3.28073 109.536 3.62098 109.467 3.62874C107.83 3.79293 106.577 3.48354 104.909 3.63069C104.818 3.63933 104.119 4.00513 103.807 3.69124C103.786 3.67034 103.477 3.34941 103.204 3.56917C103.191 3.5853 103.377 3.748 103.044 3.73128C102.708 3.71455 102.169 3.8249 101.708 3.64339C101.562 3.58613 101.216 3.26508 100.781 3.52034C100.753 3.53818 100.081 4.11609 99.8407 3.7176C99.8018 3.65197 99.8419 3.22985 99.3221 3.44612C99.2228 3.48806 99.4031 3.58266 99.1415 3.64143C98.7406 3.73196 98.2094 3.61858 97.7167 3.80647C97.6307 3.83975 97.265 4.12638 96.9715 3.90901C96.9256 3.875 97.0126 3.73457 96.8583 3.71858C96.1213 3.64296 95.3487 3.73694 94.6005 3.63948C94.3361 3.60502 94.4713 3.37723 94.1952 3.31624C93.9189 3.25525 93.3623 3.19663 93.0731 3.30061C92.784 3.4047 93.0996 3.76751 92.6669 3.79671C90.7835 3.92284 88.9175 3.71066 87.037 3.67952C86.7581 3.67488 86.989 3.80401 86.578 3.80647C85.0626 3.81615 82.4466 3.93786 81.1317 3.66194C80.0781 3.44091 81.4036 3.27337 80.5985 3.18342C80.2102 3.14069 79.7901 3.56149 79.6962 3.57503C78.78 3.70997 78.1429 3.52354 77.3182 3.58089C77.1486 3.59297 77.3149 3.76377 77.1708 3.77229C76.6757 3.80195 76.1546 3.72513 75.6815 3.73909C75.4698 3.74592 75.5085 3.87612 75.3133 3.86604C74.8462 3.84342 74.4328 3.78923 73.9774 3.66682C73.9367 3.65533 74.2153 3.49317 73.87 3.48714C73.3105 3.47776 72.6161 3.35659 71.9725 3.48128C71.7817 3.51892 71.7743 3.81696 71.3641 3.61116C71.278 3.5681 71.3873 3.20963 70.909 3.51936C70.8283 3.57098 70.0249 3.98879 69.6307 3.71956C69.5266 3.64844 69.2616 3.35527 69.0321 3.4012C69.0009 3.40855 69.1256 3.5691 68.9354 3.58479C68.2648 3.63711 67.5619 3.61957 66.8729 3.66975C66.6889 3.68348 66.9625 3.84988 66.6883 3.86506C65.9342 3.90701 64.9922 3.86427 64.2548 3.81233C63.9832 3.79281 64.171 3.65541 64.1512 3.64046C63.8332 3.39739 63.6445 3.7258 63.5389 3.74495C62.8824 3.85947 62.3824 3.70513 61.7772 3.74592C61.6102 3.75677 61.7284 3.9136 61.6952 3.92756C61.3507 4.06382 61.607 3.78311 61.3895 3.75178C60.778 3.66402 60.0958 3.67709 59.4774 3.6971C59.2503 3.70467 59.5053 3.88568 59.3016 3.89046C58.095 3.92174 56.8405 3.9046 55.663 3.80452C55.4412 3.78534 55.5803 3.64504 55.5341 3.61311C55.2155 3.39021 54.7489 3.69445 54.6415 3.72346C54.1531 3.85598 53.9634 3.73261 53.5321 3.75569C51.4252 3.87057 48.8236 3.7887 46.8348 3.73811C44.2432 3.673 42.232 3.54049 39.7606 3.57503C39.6039 3.57721 39.762 3.76221 39.6268 3.76643C37.8787 3.81126 36.1577 3.7391 34.4061 3.7928C34.2624 3.79688 34.4689 3.97271 34.2382 3.98518C33.765 4.01198 33.1657 4.0024 32.6874 3.94612C32.4541 3.91898 32.767 3.76818 32.5321 3.74397C31.9851 3.68725 31.3986 3.67469 30.8368 3.70296C30.5982 3.71545 30.9582 3.89504 30.6483 3.89729C28.5314 3.91518 26.4516 3.94624 24.3124 3.71272C24.1658 3.69628 24.0371 3.33095 23.7255 3.4012C23.7021 3.50283 23.7035 3.6227 23.6932 3.73128C20.6115 3.78984 17.561 3.66205 14.4706 3.64241C14.3404 3.64167 14.5654 3.83625 14.3134 3.83577C12.8534 3.8329 11.4356 3.88618 9.94226 3.69319C9.79411 3.67432 9.86982 3.33311 9.43347 3.3846C9.35645 3.39402 8.69823 3.43934 8.52819 3.5135C8.50547 3.52503 8.62463 3.68464 8.41296 3.68928C7.1816 3.71348 5.8912 3.67731 4.66198 3.57991C4.46356 3.56388 4.6744 3.39358 4.53308 3.38069C3.53067 3.2906 2.44012 3.41962 1.4823 3.26546C0.841409 3.16161 1.07884 2.86783 0.738155 2.57893C0.689679 2.53823 0.293127 2.53194 0.272335 2.36409C0.219637 1.94149 0.411613 1.47861 0.332882 1.02815C0.31621 0.9311 -0.215349 1.03514 0.0994834 0.800612C0.122858 0.784716 0.506162 0.707074 0.601437 0.62776C0.667543 0.572757 0.548624 0.401308 0.683468 0.330885C0.818343 0.260537 0.966682 0.403849 1.1903 0.32112C1.4137 0.237384 1.31571 0.0434611 1.76159 0.0203383ZM124.037 2.72249C123.684 2.55934 123.632 3.15627 124.014 3.0135C124.032 3.00587 124.055 2.7305 124.037 2.72249ZM166.741 2.62776C166.28 2.36392 165.964 2.75212 166.29 2.95589C166.615 3.15868 166.882 2.70773 166.741 2.62776ZM171.526 2.43538C170.987 2.22735 170.902 3.07557 171.479 2.90413C171.513 2.89448 171.557 2.45123 171.526 2.43538ZM2.02136 2.48909C1.86938 2.67907 2.43986 2.69442 2.31823 2.4969C2.31341 2.48903 2.03315 2.48157 2.02136 2.48909ZM176.274 2.22542C176.106 2.1107 175.621 2.24293 175.83 2.38557C175.998 2.50031 176.483 2.36809 176.274 2.22542ZM105.626 2.08381C105.62 2.07491 105.416 2.06677 105.42 2.11702C105.434 2.27926 105.718 2.23364 105.626 2.08381ZM183.727 1.56233C183.961 1.57682 183.221 1.78526 183.519 1.84846C184.067 1.96355 184.431 1.52384 184.99 1.7596C185.089 1.80375 184.412 2.21903 184.342 2.21663L184.344 2.21565C183.151 2.18363 182.429 1.48327 183.727 1.56233ZM123.537 1.99592C123.384 2.18583 123.954 2.20129 123.834 2.00374C123.826 1.99587 123.546 1.98827 123.537 1.99592ZM92.9911 1.6971C92.649 2.00744 93.977 2.03987 93.6854 1.7137C93.6657 1.6969 93.0124 1.68162 92.9911 1.6971Z" fill="var(--fill-0, black)" id="Line (Stroke)"/>
</svg>