<?xml version="1.0" encoding="utf-8"?>
<svg xmlns="http://www.w3.org/2000/svg" fill="none" height="100%" overflow="visible" preserveAspectRatio="none" style="display: block;" viewBox="0 0 24.5081 27.8606" width="100%">
<g id="Group">
<path d="M14.5065 6.41943C20.1642 6.41943 24.5081 10.7146 24.5081 17.0879C24.5081 23.4966 20.1642 27.8606 14.5065 27.8606H8.16185C6.88092 27.8606 5.81775 26.9258 5.81775 25.2982V9.08788C5.81775 7.4603 6.88092 6.41943 8.16185 6.41943H14.5065Z" fill="url(#paint0_linear_0_173)" id="Vector"/>
<path d="M11.6009 3.21368C17.2578 3.21368 21.6026 7.50882 21.6026 13.883C21.6026 20.2908 17.2578 24.6558 11.6009 24.6558H5.25633C3.9754 24.6558 2.91223 23.7201 2.91223 22.0934V5.88124C2.91223 4.25279 3.9746 3.21368 5.25633 3.21368H11.6009Z" fill="url(#paint1_linear_0_173)" id="Vector_2" opacity="0.75"/>
<path d="M8.68871 0C14.3456 0 18.6904 4.29514 18.6904 10.6685C18.6904 17.0763 14.3456 21.4412 8.68871 21.4412H2.3441C1.06317 21.4412 0 20.5064 0 18.8788V2.66668C0 1.0391 1.06317 0 2.3441 0H8.68871Z" fill="url(#paint2_linear_0_173)" id="Vector_3" opacity="0.65"/>
</g>
<defs>
<linearGradient gradientUnits="userSpaceOnUse" id="paint0_linear_0_173" x1="5.81775" x2="24.5081" y1="17.1418" y2="17.1418">
<stop stop-color="#FFB738"/>
<stop offset="1" stop-color="#FFA300"/>
</linearGradient>
<linearGradient gradientUnits="userSpaceOnUse" id="paint1_linear_0_173" x1="2.91223" x2="21.6026" y1="13.9343" y2="13.9343">
<stop stop-color="#FF7733"/>
<stop offset="1" stop-color="#FF6900"/>
</linearGradient>
<linearGradient gradientUnits="userSpaceOnUse" id="paint2_linear_0_173" x1="0.186535" x2="18.3293" y1="10.7206" y2="10.7206">
<stop stop-color="#FF4A26"/>
<stop offset="1" stop-color="#F24100"/>
</linearGradient>
</defs>
</svg>