<?xml version="1.0" encoding="utf-8"?>
<svg xmlns="http://www.w3.org/2000/svg" fill="none" height="100%" overflow="visible" preserveAspectRatio="none" style="display: block;" viewBox="0 0 19.5845 18.4526" width="100%">
<path d="M14.7139 8.69287C14.4077 8.69287 14.1943 8.47021 14.1943 8.17334V0.538086C14.1943 0.231934 14.417 0 14.7139 0C15.0015 0 15.2334 0.231934 15.2334 0.538086V8.17334C15.2334 8.46094 15.0015 8.69287 14.7139 8.69287ZM13.4707 18.4526C10.8174 18.4526 7.57959 16.792 4.61084 13.8325C1.63281 10.8638 0 7.6167 0 4.96338C0 3.3584 0.436035 2.2915 1.48438 1.36377C1.55859 1.28955 1.64209 1.21533 1.71631 1.15039C2.33789 0.59375 2.94092 0.324707 3.51611 0.333984C4.1748 0.343262 4.80566 0.723633 5.38086 1.54932L7.2085 4.18408C7.68164 4.85205 7.57031 5.64062 7.2085 6.21582L6.37354 7.52393C6.21582 7.77441 6.19727 7.95068 6.31787 8.16406C6.62402 8.69287 7.31055 9.53711 8.00635 10.2422C8.71143 10.9565 9.73193 11.7822 10.1494 12.042C10.4185 12.209 10.6597 12.209 10.9287 12.0791L12.376 11.374C13.2666 10.9473 13.8696 10.9751 14.584 11.4575L16.9126 13.0532C17.7383 13.6191 18.1187 14.2686 18.1187 14.9365C18.1187 15.5117 17.8496 16.1147 17.293 16.7271C17.228 16.8105 17.1631 16.8848 17.0889 16.9683C16.1519 18.0166 15.085 18.4526 13.4707 18.4526ZM16.8755 7.79297C16.5972 7.79297 16.3652 7.56104 16.3652 7.27344V1.41016C16.3652 1.13184 16.5972 0.899902 16.8755 0.899902C17.1816 0.899902 17.4136 1.13184 17.4136 1.41016V7.27344C17.4136 7.56104 17.1816 7.79297 16.8755 7.79297ZM12.5337 7.11572C12.2461 7.11572 12.0142 6.88379 12.0142 6.57764V2.09668C12.0142 1.80908 12.2461 1.57715 12.5337 1.57715C12.8306 1.57715 13.0625 1.80908 13.0625 2.09668V6.57764C13.0625 6.88379 12.8306 7.11572 12.5337 7.11572ZM13.48 17.0425C14.5098 17.0239 15.3911 16.6714 16.022 15.9385C16.0776 15.8828 16.1147 15.8271 16.1704 15.7715C16.4116 15.4932 16.5415 15.187 16.5415 14.9272C16.5415 14.6489 16.4302 14.4077 16.1611 14.2314L13.9902 12.7749C13.6934 12.5894 13.415 12.543 13.0625 12.7007L11.4946 13.4429C10.6411 13.8604 10.1309 13.7676 9.57422 13.3594C8.94336 12.9141 7.76514 11.9121 7.05078 11.207C6.3457 10.502 5.5293 9.47217 5.00049 8.75781C4.58301 8.20117 4.51807 7.7002 4.92627 7.0415L5.84473 5.55713C6.03955 5.23242 6.04883 5.02832 5.89111 4.79639L4.22119 2.2915C4.03564 2.01318 3.80371 1.91113 3.52539 1.91113C3.25635 1.91113 2.95947 2.04102 2.68115 2.28223C2.62549 2.32861 2.56982 2.375 2.50488 2.42139C1.78125 3.06152 1.42871 3.93359 1.41016 4.9541C1.36377 7.3291 3.26562 10.4648 5.67773 12.877C8.08057 15.2705 11.1143 17.0889 13.48 17.0425ZM19.0649 6.03955C18.7681 6.03955 18.5361 5.81689 18.5361 5.52002V3.16357C18.5361 2.88525 18.7681 2.64404 19.0649 2.64404C19.3618 2.64404 19.5845 2.87598 19.5845 3.16357V5.52002C19.5845 5.82617 19.3618 6.03955 19.0649 6.03955ZM10.3535 5.55713C10.0659 5.55713 9.84326 5.3252 9.84326 5.0376V3.65527C9.84326 3.3584 10.0659 3.12646 10.3535 3.12646C10.6504 3.12646 10.8823 3.3584 10.8823 3.65527V5.0376C10.8823 5.3252 10.6504 5.55713 10.3535 5.55713Z" fill="var(--fill-0, white)" id="Vector"/>
</svg>