<?xml version="1.0" encoding="utf-8"?>
<svg xmlns="http://www.w3.org/2000/svg" fill="none" height="100%" overflow="visible" preserveAspectRatio="none" style="display: block;" viewBox="0 0 22 16" width="100%">
<path d="M2.78933 16C0.960959 16 0 15.0487 0 13.2148V2.78522C0 0.951259 0.952455 0 2.78933 0H17.5014C19.3467 0 20.2907 0.951259 20.2907 2.78522V3.17943C19.7464 3.17943 19.2107 3.17943 18.6239 3.17943V2.92234C18.6239 2.09106 18.1817 1.6797 17.4078 1.6797H2.89138C2.1005 1.6797 1.6668 2.09106 1.6668 2.92234V13.0691C1.6668 13.9004 2.1005 14.3203 2.89138 14.3203H13.6745C13.683 14.5088 13.6915 14.6888 13.7 14.8602C13.7596 15.2973 13.9126 15.6829 14.1337 16H2.78933ZM16.3533 16C15.2988 16 14.6695 15.3915 14.6695 14.3717V5.84467C14.6695 4.82485 15.2988 4.21639 16.3533 4.21639H20.3417C21.3877 4.21639 22 4.82485 22 5.84467V14.3717C22 15.3915 21.3877 16 20.3417 16H16.3533ZM16.4383 14.7145H20.2312C20.5798 14.7145 20.7584 14.526 20.7584 14.166V6.05035C20.7584 5.69041 20.5798 5.4933 20.2312 5.4933H16.4383C16.0982 5.4933 15.9196 5.68184 15.9196 6.04178V14.1746C15.9196 14.5345 16.0982 14.7145 16.4383 14.7145ZM17.6629 6.72737C17.4333 6.72737 17.2547 6.5474 17.2547 6.31601C17.2547 6.0932 17.4333 5.91323 17.6629 5.91323H18.9896C19.2107 5.91323 19.3978 6.0932 19.3978 6.31601C19.3978 6.5474 19.2192 6.72737 18.9896 6.72737H17.6629ZM6.85427 13.6347C6.60765 13.6347 6.43757 13.4719 6.43757 13.2148C6.43757 12.9577 6.60765 12.7949 6.85427 12.7949H13.649V13.6347H6.85427ZM17.1782 14.2603C16.9996 14.2603 16.8806 14.1403 16.8806 13.9604C16.8806 13.7804 17.0081 13.6518 17.1782 13.6518H19.4828C19.6614 13.6518 19.7889 13.7804 19.7889 13.9604C19.7889 14.1403 19.6614 14.2603 19.4828 14.2603H17.1782Z" fill="var(--fill-0, black)" id="Vector"/>
</svg>