<?xml version="1.0" encoding="utf-8"?>
<svg xmlns="http://www.w3.org/2000/svg" fill="none" height="100%" overflow="visible" preserveAspectRatio="none" style="display: block;" viewBox="0 0 14.4445 16.0494" width="100%">
<g id="Logo">
<path d="M8.54976 3.69794C11.8843 3.69794 14.4445 6.1722 14.4445 9.84363C14.4445 13.5354 11.8843 16.0494 8.54976 16.0494H4.81043C4.05548 16.0494 3.42888 15.5109 3.42888 14.5733V5.23513C3.42888 4.29755 4.05548 3.69794 4.81043 3.69794H8.54976Z" fill="url(#paint0_linear_0_679)" id="Vector"/>
<path d="M6.83731 1.85131C10.1713 1.85131 12.732 4.32557 12.732 7.99751C12.732 11.6888 10.1713 14.2033 6.83731 14.2033H3.09798C2.34303 14.2033 1.71643 13.6642 1.71643 12.7272V3.38799C1.71643 2.4499 2.34256 1.85131 3.09798 1.85131H6.83731Z" fill="url(#paint1_linear_0_679)" id="Vector_2" opacity="0.75"/>
<path d="M5.12088 0C8.4549 0 11.0156 2.47426 11.0156 6.14569C11.0156 9.83698 8.4549 12.3515 5.12088 12.3515H1.38155C0.626603 12.3515 0 11.8129 0 10.8753V1.53617C0 0.598587 0.626603 0 1.38155 0H5.12088Z" fill="url(#paint2_linear_0_679)" id="Vector_3" opacity="0.65"/>
</g>
<defs>
<linearGradient gradientUnits="userSpaceOnUse" id="paint0_linear_0_679" x1="3.42888" x2="14.4445" y1="9.87468" y2="9.87468">
<stop stop-color="#FFB738"/>
<stop offset="1" stop-color="#FFA300"/>
</linearGradient>
<linearGradient gradientUnits="userSpaceOnUse" id="paint1_linear_0_679" x1="1.71643" x2="12.732" y1="8.02704" y2="8.02704">
<stop stop-color="#FF7733"/>
<stop offset="1" stop-color="#FF6900"/>
</linearGradient>
<linearGradient gradientUnits="userSpaceOnUse" id="paint2_linear_0_679" x1="0.109939" x2="10.8028" y1="6.17573" y2="6.17573">
<stop stop-color="#FF4A26"/>
<stop offset="1" stop-color="#F24100"/>
</linearGradient>
</defs>
</svg>