<?xml version="1.0" encoding="utf-8"?>
<svg xmlns="http://www.w3.org/2000/svg" fill="none" height="100%" overflow="visible" preserveAspectRatio="none" style="display: block;" viewBox="0 0 18.2857 16" width="100%">
<g id="Logo">
<path clip-rule="evenodd" d="M12.1431 1.07395C13.5483 -0.357967 15.8163 -0.357966 17.2215 1.07395C18.6405 2.52002 18.6405 4.87548 17.2215 6.32155L7.72404 16L1.12439 9.58025C-0.326169 8.16923 -0.381133 5.81446 1.00551 4.33409C2.37856 2.86824 4.64606 2.81567 6.08249 4.21295L7.60732 5.69622L12.1431 1.07395ZM15.5378 2.86213C15.0681 2.38346 14.2965 2.38346 13.8268 2.86213L7.64601 9.16069L4.43925 6.04134C3.95775 5.57296 3.18635 5.59242 2.72865 6.08105C2.28455 6.55517 2.30025 7.29723 2.76762 7.75186L7.68535 12.5355L15.5378 4.53337C15.9937 4.06885 15.9937 3.32665 15.5378 2.86213Z" fill="var(--fill-0, #13A049)" fill-rule="evenodd" id="Vector"/>
</g>
</svg>