<?xml version="1.0" encoding="utf-8"?>
<svg xmlns="http://www.w3.org/2000/svg" fill="none" height="100%" overflow="visible" preserveAspectRatio="none" style="display: block;" viewBox="0 0 55 12" width="100%">
<g id="Logo">
<path clip-rule="evenodd" d="M34.2339 0C33.3208 0 32.5806 0.78112 32.5806 1.74468V4.97872C32.5806 5.20133 32.6201 5.41421 32.6922 5.60996C32.6191 5.96891 32.5806 6.34142 32.5806 6.7234C32.5806 9.63759 34.8192 12 37.5806 12C40.3421 12 42.5806 9.63759 42.5806 6.7234C42.5806 3.80922 40.3421 1.44681 37.5806 1.44681C36.9862 1.44681 36.416 1.55629 35.8871 1.75718V1.74468C35.8871 0.78112 35.1469 0 34.2339 0ZM39.2742 6.6383C39.2742 7.62536 38.516 8.42553 37.5806 8.42553C36.6453 8.42553 35.8871 7.62536 35.8871 6.6383C35.8871 5.65124 36.6453 4.85106 37.5806 4.85106C38.516 4.85106 39.2742 5.65124 39.2742 6.6383Z" fill="var(--fill-0, #13A049)" fill-rule="evenodd"/>
<path d="M1.6129 0.0851064C0.722122 0.0851064 0 0.847174 0 1.78723C0 2.72729 0.722122 3.48936 1.6129 3.48936H3.22581V10.2979C3.22581 11.2379 3.94793 12 4.83871 12C5.72949 12 6.45161 11.2379 6.45161 10.2979V3.48936H8.14516C9.03594 3.48936 9.75806 2.72729 9.75806 1.78723C9.75806 0.847174 9.03594 0.0851064 8.14516 0.0851064H1.6129Z" fill="var(--fill-0, #13A049)"/>
<path clip-rule="evenodd" d="M14.7581 12C17.5195 12 19.7581 9.63759 19.7581 6.7234C19.7581 3.80922 17.5195 1.44681 14.7581 1.44681C11.9966 1.44681 9.75806 3.80922 9.75806 6.7234C9.75806 9.63759 11.9966 12 14.7581 12ZM14.7581 8.42553C15.6934 8.42553 16.4516 7.62536 16.4516 6.6383C16.4516 5.65124 15.6934 4.85106 14.7581 4.85106C13.8227 4.85106 13.0645 5.65124 13.0645 6.6383C13.0645 7.62536 13.8227 8.42553 14.7581 8.42553Z" fill="var(--fill-0, #13A049)" fill-rule="evenodd"/>
<path clip-rule="evenodd" d="M31.0484 6.7234C31.0484 9.63759 28.8098 12 26.0484 12C23.287 12 21.0484 9.63759 21.0484 6.7234C21.0484 3.80922 23.287 1.44681 26.0484 1.44681C28.8098 1.44681 31.0484 3.80922 31.0484 6.7234ZM27.7419 6.6383C27.7419 7.62536 26.9837 8.42553 26.0484 8.42553C25.1131 8.42553 24.3548 7.62536 24.3548 6.6383C24.3548 5.65124 25.1131 4.85106 26.0484 4.85106C26.9837 4.85106 27.7419 5.65124 27.7419 6.6383Z" fill="var(--fill-0, #13A049)" fill-rule="evenodd"/>
<path clip-rule="evenodd" d="M48.9516 12C49.2406 12 49.5239 11.9741 49.7995 11.9244C49.9522 11.9736 50.1143 12 50.2823 12H53.3468C54.2598 12 55 11.2189 55 10.2553C55 9.40017 54.417 8.68872 53.6476 8.53945C53.8443 7.97324 53.9516 7.36155 53.9516 6.7234C53.9516 3.80922 51.713 1.44681 48.9516 1.44681C46.1902 1.44681 43.9516 3.80922 43.9516 6.7234C43.9516 9.63759 46.1902 12 48.9516 12ZM48.9516 8.42553C49.8869 8.42553 50.6452 7.62536 50.6452 6.6383C50.6452 5.65124 49.8869 4.85106 48.9516 4.85106C48.0163 4.85106 47.2581 5.65124 47.2581 6.6383C47.2581 7.62536 48.0163 8.42553 48.9516 8.42553Z" fill="var(--fill-0, #13A049)" fill-rule="evenodd"/>
</g>
</svg>