<?xml version="1.0" encoding="utf-8"?>
<svg xmlns="http://www.w3.org/2000/svg" fill="none" height="100%" overflow="visible" preserveAspectRatio="none" style="display: block;" viewBox="0 0 14 22" width="100%">
<path d="M2.96342 22C1.18755 22 0 20.9192 0 19.2981V2.70194C0 1.08077 1.18755 0 2.96342 0H11.0366C12.8125 0 14 1.08077 14 2.70194V19.2981C14 20.9192 12.8125 22 11.0366 22H2.96342ZM3.19222 20.3269H10.8187C11.7339 20.3269 12.2459 19.8592 12.2459 19.0279V2.97213C12.2459 2.14077 11.7339 1.67312 10.8187 1.67312H3.19222C2.26615 1.67312 1.75409 2.14077 1.75409 2.97213V19.0279C1.75409 19.8592 2.26615 20.3269 3.19222 20.3269ZM5.68716 3.87624C5.25136 3.87624 4.91362 3.55409 4.91362 3.1384C4.91362 2.73311 5.25136 2.41096 5.68716 2.41096H8.32374C8.74864 2.41096 9.08638 2.73311 9.08638 3.1384C9.08638 3.55409 8.74864 3.87624 8.32374 3.87624H5.68716ZM4.69572 19.5683C4.40156 19.5683 4.18366 19.3708 4.18366 19.0798C4.18366 18.7889 4.40156 18.6018 4.69572 18.6018H9.32607C9.62023 18.6018 9.82724 18.7889 9.82724 19.0798C9.82724 19.3708 9.62023 19.5683 9.32607 19.5683H4.69572Z" fill="var(--fill-0, black)" id="Vector"/>
</svg>