<?xml version="1.0" encoding="utf-8"?>
<svg xmlns="http://www.w3.org/2000/svg" fill="none" height="100%" overflow="visible" preserveAspectRatio="none" style="display: block;" viewBox="0 0 108 10" width="100%">
<g id="Vector">
<path d="M15.2469 0C12.5015 0 10.3492 2.143 10.3492 5C10.3492 7.88843 12.5015 10 15.2469 10C17.9923 10 20.1465 7.80986 20.1465 4.96759C20.1465 2.11059 17.9933 0 15.2469 0ZM15.2469 7.75879C13.7437 7.75879 12.6913 6.58024 12.6913 4.98134C12.6913 3.40994 13.7437 2.23139 15.2469 2.23139C16.7653 2.23139 17.8035 3.40994 17.8035 4.98134C17.8035 6.58711 16.8118 7.76174 15.2469 7.76174V7.75879Z" fill="var(--fill-0, black)"/>
<path d="M36.9054 0C34.16 0 32.0087 2.143 32.0087 5C32.0087 7.88843 34.1619 10 36.9073 10C39.6527 10 41.806 7.80986 41.806 4.96759C41.8041 2.11059 39.6508 0 36.9054 0ZM36.9054 7.75879C35.4022 7.75879 34.3489 6.58024 34.3489 4.98134C34.3489 3.40994 35.4022 2.23139 36.9054 2.23139C38.4238 2.23139 39.461 3.40994 39.461 4.98134C39.461 6.58711 38.4694 7.76174 36.9054 7.76174V7.75879Z" fill="var(--fill-0, black)"/>
<path d="M25.8895 0.0736398H21.6248V9.89981H25.8895C28.6653 9.89981 30.7977 7.89922 30.7977 4.96266C30.7977 2.04182 28.6653 0.0736398 25.8895 0.0736398ZM25.8222 7.65074H23.9242V2.32664H25.8222C27.4022 2.32664 28.4603 3.33233 28.4603 4.96757C28.4603 6.60281 27.4022 7.65074 25.8222 7.65074Z" fill="var(--fill-0, black)"/>
<path d="M4.26379 0.0736398H0V9.89981H4.26379C7.04052 9.89981 9.17193 7.89922 9.17193 4.96266C9.17193 2.04182 7.04052 0.0736398 4.26379 0.0736398ZM4.19736 7.65074H2.30508V2.32664H4.20305C5.78311 2.32664 6.84123 3.33233 6.84123 4.96757C6.84123 6.60281 5.77742 7.65074 4.19736 7.65074Z" fill="var(--fill-0, black)"/>
<path d="M85.625 6.36315L81.5843 0.0746054H78.9043V9.89488H81.086V3.62204L85.1268 9.90077L85.1392 9.89488H87.8068V0.0746054H85.625V6.36315Z" fill="var(--fill-0, black)"/>
<path d="M71.3075 0.0746054L67.3417 9.90077H69.8033L70.5103 8.08973H74.5103L75.2173 9.90077H77.7511L73.7862 0.0746054H71.3075ZM71.3891 5.83968L72.5108 2.96697L73.6315 5.83968H71.3891Z" fill="var(--fill-0, black)"/>
<path d="M107.3 4.99509C106.89 4.5659 106.129 4.23493 105.176 4.066C104.223 3.89707 103.468 3.71243 103.098 3.57494C102.688 3.41485 102.528 3.18209 102.528 2.89924C102.528 2.47005 102.798 2.13809 103.844 2.13809C105.438 2.13809 107.129 2.94736 107.129 2.94736L107.83 0.933019C107.83 0.933019 106.198 0 104.237 0C103.233 0 102.339 0.165979 101.704 0.499902C100.661 1.04596 100.154 2.01336 100.154 2.98468C100.154 3.86859 100.401 4.39207 100.824 4.85072C101.312 5.38499 102.096 5.76311 103.324 5.97329C104.588 6.18936 105.002 6.31409 105.303 6.47712C105.406 6.53012 105.492 6.61325 105.55 6.71623C105.608 6.81921 105.636 6.93754 105.629 7.05657C105.629 7.54763 105.289 7.86977 104.344 7.86977C102.573 7.86977 100.782 6.92595 100.782 6.92595L100.082 8.94029C100.082 8.94029 101.695 9.99902 104.162 9.99902C106.754 9.99902 108 8.55824 108 6.83952C108.003 6.10293 107.752 5.43901 107.3 4.99509Z" fill="var(--fill-0, black)"/>
<path d="M94.0548 0.0696982H89.7901V9.89096H94.0548C96.8306 9.89096 98.963 7.89135 98.963 4.9548C98.963 2.03788 96.8306 0.0696982 94.0548 0.0696982ZM93.9875 7.6468H92.0895V2.31779H93.9875C95.5675 2.31779 96.6256 3.32348 96.6256 4.95872C96.6256 6.59396 95.5675 7.6468 93.9875 7.6468Z" fill="var(--fill-0, black)"/>
<path d="M55.3963 4.89096C56.0378 4.4215 56.3187 3.67901 56.3187 2.80787C56.3187 1.09602 55.0471 0.0696982 53.151 0.0696982L48.2998 0.0746091V9.90078H53.2687C55.5045 9.90078 56.6433 8.64169 56.6433 6.97895C56.6471 6.02138 56.2551 5.29854 55.3963 4.89096ZM50.6039 2.15573H53.0238C53.6549 2.15573 53.9861 2.58689 53.9861 3.1025C53.9861 3.60044 53.6454 4.05418 53.0238 4.05418H50.6039V2.15573ZM53.3512 7.79707H50.6039V5.99487H53.3512C53.9519 5.99487 54.305 6.2895 54.305 6.85717C54.305 7.361 53.9946 7.80001 53.3512 7.80001V7.79707Z" fill="var(--fill-0, black)"/>
<path d="M66.309 3.46295C66.309 1.31602 64.9729 0.0746091 62.9876 0.0746091L58.2891 0.0696982V9.89097H60.5904V7.01039H61.8886L64.1026 9.90079H66.8167L64.3162 6.5812C65.6343 5.97523 66.309 4.79471 66.309 3.46295ZM60.5942 4.82909V2.31975H62.757C63.4374 2.31975 63.9745 2.75483 63.9745 3.57491C63.9745 4.28204 63.4801 4.82909 62.7247 4.82909H60.5942Z" fill="var(--fill-0, black)"/>
</g>
</svg>